<mxfile host="app.diagrams.net" modified="2023-10-02T12:55:45.215Z" agent="Mozilla/5.0 (X11; Ubuntu; Linux x86_64; rv:109.0) Gecko/20100101 Firefox/117.0" etag="bN09NO4XVhI6xVObSRSk" version="21.1.2" type="device">
  <diagram name="Page-1" id="A7XZVad8_TVg2SHbHW1f">
    <mxGraphModel dx="1434" dy="793" grid="1" gridSize="10" guides="1" tooltips="1" connect="1" arrows="1" fold="1" page="1" pageScale="1" pageWidth="827" pageHeight="1169" math="1" shadow="0">
      <root>
        <mxCell id="0" />
        <mxCell id="1" parent="0" />
        <mxCell id="8Mb3PRgsqme2G7pjys5r-1" value="&lt;div&gt;&lt;br&gt;&lt;/div&gt;&lt;div&gt;A&lt;br&gt;&lt;/div&gt;" style="shape=actor;whiteSpace=wrap;html=1;" vertex="1" parent="1">
          <mxGeometry y="80" width="40" height="40" as="geometry" />
        </mxCell>
        <mxCell id="8Mb3PRgsqme2G7pjys5r-5" value="&lt;div&gt;&lt;br&gt;&lt;/div&gt;&lt;div&gt;B&lt;br&gt;&lt;/div&gt;" style="shape=actor;whiteSpace=wrap;html=1;" vertex="1" parent="1">
          <mxGeometry x="120" y="40" width="40" height="40" as="geometry" />
        </mxCell>
        <mxCell id="8Mb3PRgsqme2G7pjys5r-6" value="&lt;div&gt;&lt;br&gt;&lt;/div&gt;&lt;div&gt;C&lt;br&gt;&lt;/div&gt;" style="shape=actor;whiteSpace=wrap;html=1;" vertex="1" parent="1">
          <mxGeometry x="80" y="240" width="40" height="40" as="geometry" />
        </mxCell>
        <mxCell id="8Mb3PRgsqme2G7pjys5r-11" value="" style="shape=image;html=1;verticalAlign=top;verticalLabelPosition=bottom;labelBackgroundColor=#ffffff;imageAspect=0;aspect=fixed;image=https://cdn4.iconfinder.com/data/icons/food-and-equipment-outline/32/pizza-128.png;imageBackground=none;imageBorder=none;" vertex="1" parent="1">
          <mxGeometry x="85" y="170" width="30" height="30" as="geometry" />
        </mxCell>
        <mxCell id="8Mb3PRgsqme2G7pjys5r-26" value="&lt;div&gt;&lt;br&gt;&lt;/div&gt;&lt;div&gt;A&lt;br&gt;&lt;/div&gt;" style="shape=actor;whiteSpace=wrap;html=1;" vertex="1" parent="1">
          <mxGeometry x="400" y="80" width="40" height="40" as="geometry" />
        </mxCell>
        <mxCell id="8Mb3PRgsqme2G7pjys5r-27" value="&lt;div&gt;&lt;br&gt;&lt;/div&gt;&lt;div&gt;B&lt;br&gt;&lt;/div&gt;" style="shape=actor;whiteSpace=wrap;html=1;" vertex="1" parent="1">
          <mxGeometry x="520" y="40" width="40" height="40" as="geometry" />
        </mxCell>
        <mxCell id="8Mb3PRgsqme2G7pjys5r-28" value="&lt;div&gt;&lt;br&gt;&lt;/div&gt;&lt;div&gt;C&lt;br&gt;&lt;/div&gt;" style="shape=actor;whiteSpace=wrap;html=1;" vertex="1" parent="1">
          <mxGeometry x="480" y="240" width="40" height="40" as="geometry" />
        </mxCell>
        <mxCell id="8Mb3PRgsqme2G7pjys5r-30" value="&lt;div&gt;&lt;br&gt;&lt;/div&gt;&lt;div&gt;A&lt;br&gt;&lt;/div&gt;" style="shape=actor;whiteSpace=wrap;html=1;" vertex="1" parent="1">
          <mxGeometry x="200" y="80" width="40" height="40" as="geometry" />
        </mxCell>
        <mxCell id="8Mb3PRgsqme2G7pjys5r-31" value="&lt;div&gt;&lt;br&gt;&lt;/div&gt;&lt;div&gt;B&lt;br&gt;&lt;/div&gt;" style="shape=actor;whiteSpace=wrap;html=1;" vertex="1" parent="1">
          <mxGeometry x="320" y="40" width="40" height="40" as="geometry" />
        </mxCell>
        <mxCell id="8Mb3PRgsqme2G7pjys5r-32" value="&lt;div&gt;&lt;br&gt;&lt;/div&gt;&lt;div&gt;C&lt;br&gt;&lt;/div&gt;" style="shape=actor;whiteSpace=wrap;html=1;" vertex="1" parent="1">
          <mxGeometry x="280" y="240" width="40" height="40" as="geometry" />
        </mxCell>
        <mxCell id="8Mb3PRgsqme2G7pjys5r-33" value="" style="shape=image;html=1;verticalAlign=top;verticalLabelPosition=bottom;labelBackgroundColor=#ffffff;imageAspect=0;aspect=fixed;image=https://cdn4.iconfinder.com/data/icons/food-and-equipment-outline/32/pizza-128.png;imageBackground=none;imageBorder=none;" vertex="1" parent="1">
          <mxGeometry x="285" y="170" width="30" height="30" as="geometry" />
        </mxCell>
        <mxCell id="8Mb3PRgsqme2G7pjys5r-34" value="" style="endArrow=none;html=1;rounded=0;" edge="1" parent="1">
          <mxGeometry width="50" height="50" relative="1" as="geometry">
            <mxPoint x="180" y="320" as="sourcePoint" />
            <mxPoint x="180" y="40" as="targetPoint" />
          </mxGeometry>
        </mxCell>
        <mxCell id="8Mb3PRgsqme2G7pjys5r-35" value="" style="endArrow=none;html=1;rounded=0;" edge="1" parent="1">
          <mxGeometry width="50" height="50" relative="1" as="geometry">
            <mxPoint x="380" y="320" as="sourcePoint" />
            <mxPoint x="380" y="40" as="targetPoint" />
          </mxGeometry>
        </mxCell>
        <mxCell id="8Mb3PRgsqme2G7pjys5r-37" value="" style="shape=image;html=1;verticalAlign=top;verticalLabelPosition=bottom;labelBackgroundColor=#ffffff;imageAspect=0;aspect=fixed;image=https://cdn4.iconfinder.com/data/icons/food-and-equipment-outline/32/pizza-128.png;imageBackground=none;imageBorder=none;opacity=35;" vertex="1" parent="1">
          <mxGeometry x="285" y="120" width="30" height="30" as="geometry" />
        </mxCell>
        <mxCell id="8Mb3PRgsqme2G7pjys5r-43" value="" style="endArrow=classicThin;html=1;rounded=0;exitX=0.9;exitY=0.5;exitDx=0;exitDy=0;exitPerimeter=0;entryX=0;entryY=0;entryDx=0;entryDy=0;endFill=1;strokeWidth=0.5;" edge="1" parent="1" source="8Mb3PRgsqme2G7pjys5r-30" target="8Mb3PRgsqme2G7pjys5r-37">
          <mxGeometry width="50" height="50" relative="1" as="geometry">
            <mxPoint x="200" y="150" as="sourcePoint" />
            <mxPoint x="250" y="160" as="targetPoint" />
          </mxGeometry>
        </mxCell>
        <mxCell id="8Mb3PRgsqme2G7pjys5r-44" value="" style="endArrow=classicThin;html=1;rounded=0;entryX=0.817;entryY=-0.019;entryDx=0;entryDy=0;entryPerimeter=0;exitX=0.5;exitY=1;exitDx=0;exitDy=0;endFill=1;strokeWidth=0.5;" edge="1" parent="1" source="8Mb3PRgsqme2G7pjys5r-31" target="8Mb3PRgsqme2G7pjys5r-37">
          <mxGeometry width="50" height="50" relative="1" as="geometry">
            <mxPoint x="340" y="100" as="sourcePoint" />
            <mxPoint x="320" y="120" as="targetPoint" />
          </mxGeometry>
        </mxCell>
        <mxCell id="8Mb3PRgsqme2G7pjys5r-45" value="" style="endArrow=classicThin;html=1;rounded=0;exitX=0.5;exitY=0;exitDx=0;exitDy=0;entryX=0.5;entryY=1;entryDx=0;entryDy=0;endFill=1;strokeWidth=0.5;" edge="1" parent="1" source="8Mb3PRgsqme2G7pjys5r-32" target="8Mb3PRgsqme2G7pjys5r-33">
          <mxGeometry width="50" height="50" relative="1" as="geometry">
            <mxPoint x="340" y="220" as="sourcePoint" />
            <mxPoint x="380" y="240" as="targetPoint" />
          </mxGeometry>
        </mxCell>
        <mxCell id="8Mb3PRgsqme2G7pjys5r-47" value="" style="shape=image;html=1;verticalAlign=top;verticalLabelPosition=bottom;labelBackgroundColor=#ffffff;imageAspect=0;aspect=fixed;image=https://cdn4.iconfinder.com/data/icons/food-and-equipment-outline/32/pizza-128.png;imageBackground=none;imageBorder=none;" vertex="1" parent="1">
          <mxGeometry x="485" y="120" width="30" height="30" as="geometry" />
        </mxCell>
        <mxCell id="8Mb3PRgsqme2G7pjys5r-57" value="&lt;div&gt;&lt;br&gt;&lt;/div&gt;&lt;div&gt;A&lt;br&gt;&lt;/div&gt;" style="shape=actor;whiteSpace=wrap;html=1;" vertex="1" parent="1">
          <mxGeometry x="600" y="80" width="40" height="40" as="geometry" />
        </mxCell>
        <mxCell id="8Mb3PRgsqme2G7pjys5r-58" value="&lt;div&gt;&lt;br&gt;&lt;/div&gt;&lt;div&gt;B&lt;br&gt;&lt;/div&gt;" style="shape=actor;whiteSpace=wrap;html=1;" vertex="1" parent="1">
          <mxGeometry x="720" y="40" width="40" height="40" as="geometry" />
        </mxCell>
        <mxCell id="8Mb3PRgsqme2G7pjys5r-59" value="&lt;div&gt;&lt;br&gt;&lt;/div&gt;&lt;div&gt;C&lt;br&gt;&lt;/div&gt;" style="shape=actor;whiteSpace=wrap;html=1;" vertex="1" parent="1">
          <mxGeometry x="680" y="240" width="40" height="40" as="geometry" />
        </mxCell>
        <mxCell id="8Mb3PRgsqme2G7pjys5r-60" value="" style="shape=image;html=1;verticalAlign=top;verticalLabelPosition=bottom;labelBackgroundColor=#ffffff;imageAspect=0;aspect=fixed;image=https://cdn4.iconfinder.com/data/icons/food-and-equipment-outline/32/pizza-128.png;imageBackground=none;imageBorder=none;opacity=35;" vertex="1" parent="1">
          <mxGeometry x="630" y="150" width="30" height="30" as="geometry" />
        </mxCell>
        <mxCell id="8Mb3PRgsqme2G7pjys5r-61" value="" style="endArrow=none;html=1;rounded=0;" edge="1" parent="1">
          <mxGeometry width="50" height="50" relative="1" as="geometry">
            <mxPoint x="580" y="320" as="sourcePoint" />
            <mxPoint x="580" y="40" as="targetPoint" />
          </mxGeometry>
        </mxCell>
        <mxCell id="8Mb3PRgsqme2G7pjys5r-62" value="" style="endArrow=none;html=1;rounded=0;" edge="1" parent="1">
          <mxGeometry width="50" height="50" relative="1" as="geometry">
            <mxPoint x="780" y="320" as="sourcePoint" />
            <mxPoint x="780" y="40" as="targetPoint" />
          </mxGeometry>
        </mxCell>
        <mxCell id="8Mb3PRgsqme2G7pjys5r-63" value="" style="shape=image;html=1;verticalAlign=top;verticalLabelPosition=bottom;labelBackgroundColor=#ffffff;imageAspect=0;aspect=fixed;image=https://cdn4.iconfinder.com/data/icons/food-and-equipment-outline/32/pizza-128.png;imageBackground=none;imageBorder=none;" vertex="1" parent="1">
          <mxGeometry x="685" y="120" width="30" height="30" as="geometry" />
        </mxCell>
        <mxCell id="8Mb3PRgsqme2G7pjys5r-64" value="" style="endArrow=classicThin;html=1;rounded=0;exitX=0.5;exitY=1;exitDx=0;exitDy=0;entryX=0.25;entryY=0;entryDx=0;entryDy=0;endFill=1;strokeWidth=0.5;" edge="1" parent="1" source="8Mb3PRgsqme2G7pjys5r-57" target="8Mb3PRgsqme2G7pjys5r-60">
          <mxGeometry width="50" height="50" relative="1" as="geometry">
            <mxPoint x="600" y="150" as="sourcePoint" />
            <mxPoint x="650" y="160" as="targetPoint" />
          </mxGeometry>
        </mxCell>
        <mxCell id="8Mb3PRgsqme2G7pjys5r-65" value="" style="endArrow=classicThin;html=1;rounded=0;entryX=0.817;entryY=-0.019;entryDx=0;entryDy=0;entryPerimeter=0;exitX=0.5;exitY=1;exitDx=0;exitDy=0;endFill=1;strokeWidth=0.5;" edge="1" parent="1" source="8Mb3PRgsqme2G7pjys5r-58" target="8Mb3PRgsqme2G7pjys5r-63">
          <mxGeometry width="50" height="50" relative="1" as="geometry">
            <mxPoint x="740" y="100" as="sourcePoint" />
            <mxPoint x="720" y="120" as="targetPoint" />
          </mxGeometry>
        </mxCell>
        <mxCell id="8Mb3PRgsqme2G7pjys5r-66" value="" style="endArrow=classicThin;html=1;rounded=0;exitX=0.1;exitY=0.5;exitDx=0;exitDy=0;entryX=0.75;entryY=1;entryDx=0;entryDy=0;endFill=1;strokeWidth=0.5;exitPerimeter=0;" edge="1" parent="1" source="8Mb3PRgsqme2G7pjys5r-59" target="8Mb3PRgsqme2G7pjys5r-60">
          <mxGeometry width="50" height="50" relative="1" as="geometry">
            <mxPoint x="740" y="220" as="sourcePoint" />
            <mxPoint x="780" y="240" as="targetPoint" />
          </mxGeometry>
        </mxCell>
        <mxCell id="8Mb3PRgsqme2G7pjys5r-73" style="edgeStyle=orthogonalEdgeStyle;rounded=0;orthogonalLoop=1;jettySize=auto;html=1;" edge="1" parent="1" source="8Mb3PRgsqme2G7pjys5r-69" target="8Mb3PRgsqme2G7pjys5r-70">
          <mxGeometry relative="1" as="geometry" />
        </mxCell>
        <mxCell id="8Mb3PRgsqme2G7pjys5r-69" value="&lt;font data-font-src=&quot;https://fonts.googleapis.com/css?family=Roboto&quot; face=&quot;Roboto&quot; style=&quot;font-size: 24px;&quot;&gt;Etat initial&lt;/font&gt;" style="text;html=1;align=center;verticalAlign=middle;resizable=0;points=[];autosize=1;strokeColor=none;fillColor=none;" vertex="1" parent="1">
          <mxGeometry x="20" y="320" width="130" height="40" as="geometry" />
        </mxCell>
        <mxCell id="8Mb3PRgsqme2G7pjys5r-74" style="edgeStyle=orthogonalEdgeStyle;rounded=0;orthogonalLoop=1;jettySize=auto;html=1;" edge="1" parent="1" source="8Mb3PRgsqme2G7pjys5r-70" target="8Mb3PRgsqme2G7pjys5r-72">
          <mxGeometry relative="1" as="geometry" />
        </mxCell>
        <mxCell id="8Mb3PRgsqme2G7pjys5r-70" value="&lt;font data-font-src=&quot;https://fonts.googleapis.com/css?family=Roboto&quot; face=&quot;Roboto&quot; style=&quot;font-size: 24px;&quot;&gt;Vote&lt;/font&gt;" style="text;html=1;align=center;verticalAlign=middle;resizable=0;points=[];autosize=1;strokeColor=none;fillColor=none;" vertex="1" parent="1">
          <mxGeometry x="245" y="320" width="70" height="40" as="geometry" />
        </mxCell>
        <mxCell id="8Mb3PRgsqme2G7pjys5r-76" style="edgeStyle=orthogonalEdgeStyle;rounded=0;orthogonalLoop=1;jettySize=auto;html=1;endArrow=none;endFill=0;" edge="1" parent="1" source="8Mb3PRgsqme2G7pjys5r-71">
          <mxGeometry relative="1" as="geometry">
            <mxPoint x="760" y="340" as="targetPoint" />
          </mxGeometry>
        </mxCell>
        <mxCell id="8Mb3PRgsqme2G7pjys5r-71" value="&lt;font data-font-src=&quot;https://fonts.googleapis.com/css?family=Roboto&quot; face=&quot;Roboto&quot; style=&quot;font-size: 24px;&quot;&gt;Vote&lt;/font&gt;" style="text;html=1;align=center;verticalAlign=middle;resizable=0;points=[];autosize=1;strokeColor=none;fillColor=none;" vertex="1" parent="1">
          <mxGeometry x="640" y="320" width="70" height="40" as="geometry" />
        </mxCell>
        <mxCell id="8Mb3PRgsqme2G7pjys5r-75" style="edgeStyle=orthogonalEdgeStyle;rounded=0;orthogonalLoop=1;jettySize=auto;html=1;" edge="1" parent="1" source="8Mb3PRgsqme2G7pjys5r-72" target="8Mb3PRgsqme2G7pjys5r-71">
          <mxGeometry relative="1" as="geometry" />
        </mxCell>
        <mxCell id="8Mb3PRgsqme2G7pjys5r-72" value="&lt;font data-font-src=&quot;https://fonts.googleapis.com/css?family=Roboto&quot; face=&quot;Roboto&quot; style=&quot;font-size: 24px;&quot;&gt;Etat suivant&lt;br&gt;&lt;/font&gt;" style="text;html=1;align=center;verticalAlign=middle;resizable=0;points=[];autosize=1;strokeColor=none;fillColor=none;" vertex="1" parent="1">
          <mxGeometry x="400" y="320" width="150" height="40" as="geometry" />
        </mxCell>
        <mxCell id="8Mb3PRgsqme2G7pjys5r-77" style="edgeStyle=orthogonalEdgeStyle;rounded=0;orthogonalLoop=1;jettySize=auto;html=1;endArrow=none;endFill=0;dashed=1;" edge="1" parent="1">
          <mxGeometry relative="1" as="geometry">
            <mxPoint x="810" y="339.89" as="targetPoint" />
            <mxPoint x="760" y="339.89" as="sourcePoint" />
          </mxGeometry>
        </mxCell>
      </root>
    </mxGraphModel>
  </diagram>
</mxfile>
